<?xml version="1.0" encoding="UTF-8" standalone="no"?>
<!-- Created with Inkscape (http://www.inkscape.org/) -->

<svg
   xmlns:dc="http://purl.org/dc/elements/1.1/"
   xmlns:cc="http://creativecommons.org/ns#"
   xmlns:rdf="http://www.w3.org/1999/02/22-rdf-syntax-ns#"
   xmlns:svg="http://www.w3.org/2000/svg"
   xmlns="http://www.w3.org/2000/svg"
   xmlns:sodipodi="http://sodipodi.sourceforge.net/DTD/sodipodi-0.dtd"
   xmlns:inkscape="http://www.inkscape.org/namespaces/inkscape"
   width="59.903919mm"
   height="30.03343mm"
   viewBox="0 0 59.903919 30.03343"
   version="1.1"
   id="svg3798"
   inkscape:version="0.92.4 (5da689c313, 2019-01-14)"
   sodipodi:docname="Java_programming_language_logo_wiki_text.svg">
  <defs
     id="defs3792" />
  <sodipodi:namedview
     id="base"
     pagecolor="#ffffff"
     bordercolor="#666666"
     borderopacity="1.0"
     inkscape:pageopacity="0.0"
     inkscape:pageshadow="2"
     inkscape:zoom="2.8"
     inkscape:cx="-23.93823"
     inkscape:cy="-0.059331678"
     inkscape:document-units="mm"
     inkscape:current-layer="layer1"
     showgrid="false"
     inkscape:window-width="1920"
     inkscape:window-height="1057"
     inkscape:window-x="-8"
     inkscape:window-y="-8"
     inkscape:window-maximized="1"
     borderlayer="false"
     fit-margin-top="0"
     fit-margin-left="0"
     fit-margin-right="0"
     fit-margin-bottom="0" />
  <metadata
     id="metadata3795">
    <rdf:RDF>
      <cc:Work
         rdf:about="">
        <dc:format>image/svg+xml</dc:format>
        <dc:type
           rdf:resource="http://purl.org/dc/dcmitype/StillImage" />
        <dc:title></dc:title>
      </cc:Work>
    </rdf:RDF>
  </metadata>
  <g
     inkscape:label="Layer 1"
     inkscape:groupmode="layer"
     id="layer1"
     transform="translate(-112.16699,-102.82257)">
    <path
       inkscape:connector-curvature="0"
       style="fill:#5382a1;stroke-width:0.20597784"
       d="m 169.54768,109.30037 h -0.41978 v -0.23481 h 1.12999 v 0.23481 h -0.4169 v 1.1716 h -0.29331 z m 2.25381,0.0612 h -0.007 l -0.41586,1.11063 h -0.19032 l -0.41319,-1.11063 h -0.005 v 1.11063 h -0.27639 v -1.40642 h 0.40681 l 0.38312,0.99591 0.38188,-0.99591 h 0.40537 v 1.40642 h -0.26984 v -1.11063 z"
       id="path3746" />
    <path
       inkscape:connector-curvature="0"
       style="fill:#5382a1;stroke-width:0.20597784"
       d="m 132.53037,122.50417 c -1.29828,1.12608 -2.66947,1.75823 -3.89998,1.75823 -1.75638,0 -2.70532,-1.05317 -2.70532,-2.74239 0,-1.82723 1.01671,-3.1632 5.09569,-3.1632 h 1.50941 v 4.14736 m 3.58257,4.0419 v -12.5115 c 0,-3.19616 -1.82291,-5.30517 -6.21806,-5.30517 -2.56587,0 -4.8135,0.63359 -6.64032,1.44164 l 0.52731,2.21467 c 1.43834,-0.52792 3.30018,-1.01938 5.12761,-1.01938 2.53188,0 3.62109,1.01938 3.62109,3.12695 v 1.58129 h -1.26367 c -6.15153,0 -8.92646,2.3879 -8.92646,5.97212 0,3.09317 1.82867,4.8514 5.27179,4.8514 2.21323,0 3.86538,-0.91372 5.4098,-2.25093 l 0.28034,1.89912 h 2.81057 z"
       id="path3764" />
    <path
       inkscape:connector-curvature="0"
       style="fill:#5382a1;stroke-width:0.20597784"
       d="m 148.06852,126.54607 h -4.46808 l -5.37725,-17.49988 h 3.90183 l 3.33664,10.75205 0.74173,3.23364 c 1.68799,-4.67528 2.88183,-9.41854 3.47896,-13.98569 h 3.79556 c -1.01692,5.76265 -2.84682,12.08781 -5.40939,17.49988"
       id="path3766" />
    <path
       inkscape:connector-curvature="0"
       style="fill:#5382a1;stroke-width:0.20597784"
       d="m 165.20855,122.50417 c -1.30075,1.12608 -2.67442,1.75823 -3.90493,1.75823 -1.75328,0 -2.70469,-1.05317 -2.70469,-2.74239 0,-1.82723 1.01918,-3.1632 5.09774,-3.1632 h 1.51188 v 4.14736 m 3.58195,4.0419 v -12.5115 c 0,-3.19616 -1.82743,-5.30517 -6.21744,-5.30517 -2.56772,0 -4.81617,0.63359 -6.64216,1.44164 l 0.52647,2.21467 c 1.43897,-0.52792 3.3043,-1.01938 5.1303,-1.01938 2.53002,0 3.62088,1.01938 3.62088,3.12695 v 1.58129 h -1.26573 c -6.15339,0 -8.92708,2.3879 -8.92708,5.97212 0,3.09317 1.82722,4.8514 5.26973,4.8514 2.21447,0 3.866,-0.91372 5.4131,-2.25093 l 0.28137,1.89912 h 2.81056 z"
       id="path3768" />
    <path
       inkscape:connector-curvature="0"
       style="fill:#5382a1;stroke-width:0.20597784"
       d="m 118.41224,129.51792 c -1.02124,1.49107 -2.67071,2.67071 -4.47652,3.33808 l -1.76873,-2.08141 c 1.37449,-0.70527 2.5533,-1.84432 3.101,-2.90532 0.47374,-0.94358 0.66984,-2.15967 0.66984,-5.06787 v -19.97883 h 3.80605 v 19.70508 c -2e-4,3.88804 -0.31102,5.45862 -1.33164,6.99027"
       id="path3770" />
  </g>
</svg>
